<?xml version="1.0" encoding="utf-8"?>
<!-- Generator: Adobe Illustrator 16.0.0, SVG Export Plug-In . SVG Version: 6.00 Build 0)  -->
<!DOCTYPE svg PUBLIC "-//W3C//DTD SVG 1.1//EN" "http://www.w3.org/Graphics/SVG/1.1/DTD/svg11.dtd">
<svg version="1.1" id="Layer_1" xmlns="http://www.w3.org/2000/svg" xmlns:xlink="http://www.w3.org/1999/xlink" x="0px" y="0px"
	 width="85px" height="85px" viewBox="0 0 85 85" enable-background="new 0 0 85 85" xml:space="preserve">
<g>
	<defs>
		<path id="SVGID_1_" d="M65.904-0.003H19.193c-10.528,0-19.144,8.619-19.144,19.147v46.708c0,10.533,8.616,19.15,19.144,19.15
			h46.711c10.53,0,19.145-8.617,19.145-19.15V19.145C85.049,8.616,76.435-0.003,65.904-0.003z"/>
	</defs>
	<clipPath id="SVGID_2_">
		<use xlink:href="#SVGID_1_"  overflow="visible"/>
	</clipPath>
	<g clip-path="url(#SVGID_2_)">
		<path fill="#FFFFFF" d="M80.36,84.933c2.589,0,4.688-2.103,4.688-4.694V4.62c0-2.592-2.1-4.691-4.688-4.691H4.741
			c-2.592,0-4.695,2.1-4.695,4.691v75.619c0,2.592,2.103,4.694,4.695,4.694H80.36z"/>
		<path fill="#3C5A99" d="M58.698,84.933V52.015h11.05l1.657-12.83H58.698v-8.188c0-3.717,1.033-6.249,6.357-6.249l6.795-0.003
			V13.272c-1.175-0.155-5.205-0.507-9.899-0.507c-9.795,0-16.499,5.98-16.499,16.96v9.46h-11.08v12.83h11.08v32.918H58.698z"/>
	</g>
</g>
</svg>
