<?xml version="1.0" encoding="utf-8"?>
<!-- Generator: Adobe Illustrator 16.0.0, SVG Export Plug-In . SVG Version: 6.00 Build 0)  -->
<!DOCTYPE svg PUBLIC "-//W3C//DTD SVG 1.1//EN" "http://www.w3.org/Graphics/SVG/1.1/DTD/svg11.dtd">
<svg version="1.1" id="Layer_1" xmlns="http://www.w3.org/2000/svg" xmlns:xlink="http://www.w3.org/1999/xlink" x="0px" y="0px"
	 width="85px" height="85px" viewBox="0 0 85 85" enable-background="new 0 0 85 85" xml:space="preserve">
<g>
	<g>
		<defs>
			<filter id="Adobe_OpacityMaskFilter" filterUnits="userSpaceOnUse" x="-5.38" y="-5.381" width="95.761" height="95.762">
				<feFlood  style="flood-color:white;flood-opacity:1" result="back"/>
				<feBlend  in="SourceGraphic" in2="back" mode="normal"/>
			</filter>
		</defs>
		<mask maskUnits="userSpaceOnUse" x="-5.38" y="-5.381" width="95.761" height="95.762" id="SVGID_1_">
			<g filter="url(#Adobe_OpacityMaskFilter)">
			</g>
		</mask>
		<path mask="url(#SVGID_1_)" fill="#FFF200" d="M90.381,82.709c0,4.233-3.434,7.672-7.671,7.672H2.284
			c-4.233,0-7.664-3.438-7.664-7.672V2.29c0-4.241,3.431-7.671,7.664-7.671H82.71c4.237,0,7.671,3.43,7.671,7.671V82.709z"/>
	</g>
	<g>
		<g>
			<g>
				<path fill="#392020" d="M43.375,10.915c-19.615,0-35.504,12.547-35.504,28.032c0,9.968,6.584,18.703,16.475,23.682
					l-3.348,12.495c-0.126,0.389-0.031,0.796,0.253,1.073c0.194,0.183,0.45,0.284,0.719,0.284c0.222,0,0.426-0.087,0.626-0.237
					l14.386-9.713c2.089,0.297,4.218,0.466,6.393,0.466c19.604,0,35.511-12.538,35.511-28.05
					C78.886,23.462,62.979,10.915,43.375,10.915z"/>
			</g>
		</g>
		<g>
			<path fill="#FFF200" d="M20.329,34.507H16.46c-0.531,0-0.99-0.129-1.37-0.361c-0.389-0.234-0.614-0.592-0.71-1.046
				c-0.021-0.114-0.04-0.253-0.055-0.389c0-0.562,0.209-1.015,0.611-1.317c0.404-0.309,0.901-0.479,1.518-0.479h11.819
				c0.534,0,0.984,0.126,1.364,0.361c0.386,0.25,0.62,0.598,0.713,1.042c0.024,0.13,0.04,0.259,0.031,0.392
				c0,0.577-0.197,1.006-0.592,1.327c-0.395,0.305-0.892,0.469-1.512,0.469H24.42l-0.016,13.316c0,0.639-0.182,1.156-0.562,1.539
				c-0.361,0.389-0.87,0.586-1.493,0.586c-0.515,0-0.953-0.15-1.308-0.425c-0.361-0.281-0.589-0.667-0.688-1.148
				c-0.037-0.176-0.037-0.364-0.037-0.552L20.329,34.507z"/>
			<path fill="#FFF200" d="M31.365,31.888c0.176-0.469,0.419-0.802,0.75-1c0.327-0.2,0.74-0.302,1.252-0.302h0.981
				c0.534,0,0.981,0.108,1.342,0.324c0.361,0.213,0.639,0.626,0.842,1.24l4.936,14.3c0.158,0.444,0.266,0.833,0.327,1.142
				c0.043,0.203,0.068,0.373,0.077,0.487c-0.009,0.524-0.194,0.969-0.577,1.323c-0.374,0.377-0.83,0.546-1.364,0.546
				c-0.941,0-1.552-0.395-1.833-1.166l-1.055-3.109h-6.581l-1.059,3.109c-0.265,0.771-0.876,1.166-1.842,1.166
				c-0.472,0-0.873-0.123-1.206-0.376c-0.321-0.247-0.531-0.602-0.626-1.055c-0.021-0.13-0.04-0.278-0.04-0.438
				c-0.006-0.197,0.037-0.453,0.117-0.75c0.08-0.293,0.173-0.592,0.281-0.879L31.365,31.888z M33.839,35.208h-0.046l-2.41,7.509
				h4.792L33.839,35.208z"/>
			<path fill="#FFF200" d="M42.511,32.712c0-0.636,0.179-1.151,0.561-1.54c0.364-0.392,0.861-0.586,1.494-0.586
				c0.521,0,0.95,0.142,1.308,0.429c0.358,0.287,0.58,0.682,0.679,1.163c0.037,0.167,0.05,0.352,0.037,0.534v13.315h6.831
				c0.549,0,1.009,0.114,1.376,0.37c0.382,0.244,0.61,0.593,0.703,1.037c0.019,0.114,0.049,0.256,0.053,0.389
				c0,0.57-0.194,1.009-0.608,1.32c-0.395,0.312-0.903,0.472-1.515,0.472h-8.524c-0.636,0-1.147-0.129-1.542-0.392
				c-0.396-0.253-0.642-0.682-0.766-1.268c-0.056-0.241-0.086-0.521-0.099-0.833L42.511,32.712z"/>
			<path fill="#FFF200" d="M55.966,32.712c0-0.636,0.188-1.151,0.556-1.54c0.373-0.392,0.873-0.586,1.502-0.586
				c0.513,0,0.95,0.142,1.302,0.429c0.358,0.287,0.593,0.682,0.691,1.163c0.031,0.167,0.05,0.352,0.04,0.534l0.01,6.189l6.417-7.383
				c0.29-0.312,0.546-0.537,0.78-0.706c0.24-0.151,0.521-0.226,0.857-0.226c0.447,0,0.854,0.126,1.226,0.386
				c0.363,0.244,0.589,0.574,0.672,0.994c0.013,0.019,0.013,0.071,0.031,0.157c0,0.065,0,0.129,0.013,0.176
				c-0.004,0.296-0.071,0.549-0.191,0.771c-0.127,0.231-0.278,0.45-0.488,0.682l-4.195,4.597l4.97,7.86l0.148,0.241
				c0.336,0.54,0.534,0.926,0.589,1.19c0,0.019,0.007,0.065,0.028,0.121c0,0.073,0,0.12,0,0.142c0,0.734-0.207,1.246-0.617,1.564
				c-0.404,0.312-0.904,0.48-1.478,0.48c-0.42,0-0.769-0.073-1.024-0.228c-0.266-0.167-0.54-0.444-0.799-0.889l-4.718-7.577
				l-2.239,2.342l0.019,4.227c-0.01,0.639-0.191,1.156-0.562,1.539c-0.37,0.389-0.87,0.586-1.503,0.586
				c-0.512,0-0.947-0.15-1.312-0.425c-0.354-0.281-0.586-0.667-0.685-1.148c-0.031-0.176-0.04-0.364-0.031-0.552L55.966,32.712z"/>
		</g>
	</g>
</g>
</svg>
